<!DOCTYPE svg PUBLIC "-//W3C//DTD SVG 1.1//EN" "http://www.w3.org/Graphics/SVG/1.1/DTD/svg11.dtd">
<!-- Uploaded to: SVG Repo, www.svgrepo.com, Transformed by: SVG Repo Mixer Tools -->
<svg version="1.1" id="Layer_1" xmlns="http://www.w3.org/2000/svg" xmlns:xlink="http://www.w3.org/1999/xlink" viewBox="0 0 512 512" xml:space="preserve" width="138px" height="138px" fill="#000000">
<g id="SVGRepo_bgCarrier" stroke-width="0"/>
<g id="SVGRepo_tracerCarrier" stroke-linecap="round" stroke-linejoin="round"/>
<g id="SVGRepo_iconCarrier"> <rect x="77.812" y="194.311" style="fill:#FEE187;" width="356.377" height="233.404"/> <g> <path style="fill:#FFC61B;" d="M77.812,178.755c-8.594,0-15.562,6.967-15.562,15.562v233.405c0,8.595,6.969,15.562,15.562,15.562 h356.377c8.594,0,15.562-6.967,15.562-15.562V194.317c0-8.595-6.969-15.562-15.562-15.562H77.812z M418.626,412.16H93.374V209.88 h325.252V412.16z"/> <path style="fill:#FFC61B;" d="M496.438,147.084c8.594,0,15.562-6.967,15.562-15.562V53.69c0-8.595-6.969-15.562-15.562-15.562 h-87.149V22.575c0-8.595-6.969-15.562-15.562-15.562s-15.562,6.967-15.562,15.562v15.553H133.836V22.575 c0-8.595-6.969-15.562-15.562-15.562s-15.562,6.967-15.562,15.562v15.553H15.562C6.969,38.128,0,45.095,0,53.69v77.832v357.904 c0,8.595,6.969,15.562,15.562,15.562h480.875c8.594,0,15.562-6.967,15.562-15.562V193.564c0-8.595-6.969-15.562-15.562-15.562 c-8.594,0-15.562,6.967-15.562,15.562v280.299H31.125V147.084h362.602c8.594,0,15.562-6.967,15.562-15.562 s-6.969-15.562-15.562-15.562H31.125V69.252h71.587v7.781c0,8.595,6.969,15.562,15.562,15.562s15.562-6.967,15.562-15.562v-7.781 h244.328v7.781c0,8.595,6.969,15.562,15.562,15.562s15.562-6.967,15.562-15.562v-7.781h71.587v62.269 C480.875,140.117,487.844,147.084,496.438,147.084z"/> <path style="fill:#FFC61B;" d="M257.209,365.94c-0.037,0-0.078,0-0.115,0c-4.294-0.033-8.383-1.836-11.301-4.986l-43.671-47.143 c-5.841-6.306-5.465-16.152,0.84-21.993c6.307-5.839,16.152-5.465,21.993,0.84l32.423,35.001l66.731-69.926 c5.934-6.216,15.782-6.449,22.004-0.515c6.217,5.934,6.447,15.785,0.514,22.002l-78.159,81.9 C265.53,364.2,261.462,365.94,257.209,365.94z"/> </g> </g>
</svg>